<svg id="Capa_1" enable-background="new 0 0 512 512" height="512" viewBox="0 0 512 512" width="512" xmlns="http://www.w3.org/2000/svg"><g><g><g><path d="m127.278 0-62.769 93.883h34.881v127.484h55.776v-127.484h34.88z" fill="#e2c4ff"/></g><g><path d="m384.722 512 62.769-93.883h-34.881v-127.484h-55.776v127.484h-34.88z" fill="#e2c4ff"/></g></g><g fill="#020288"><path d="m459.245 280.633h-406.49c-5.523 0-10 4.477-10 10s4.477 10 10 10h1.754v158.421c0 5.523 4.477 10 10 10h48.313c5.523 0 10-4.477 10-10v-158.421h22.537v125.174c0 5.523 4.477 10 10 10h48.313c5.523 0 10-4.477 10-10v-125.174h22.537v91.928c0 5.523 4.477 10 10 10h48.313c5.523 0 10-4.477 10-10v-91.928h154.722c5.523 0 10-4.477 10-10s-4.476-10-9.999-10zm-356.422 168.422h-28.314v-148.422h28.313v148.422zm90.85-33.247h-28.313v-115.175h28.313zm90.85-33.247h-28.313v-81.928h28.313z"/><path d="m52.755 231.367h406.49c5.523 0 10-4.477 10-10s-4.477-10-10-10h-1.754v-158.422c0-5.523-4.477-10-10-10h-48.313c-5.523 0-10 4.477-10 10v158.421h-22.538v-125.174c0-5.523-4.477-10-10-10h-48.313c-5.523 0-10 4.477-10 10v125.174h-22.537v-91.928c0-5.523-4.477-10-10-10h-48.313c-5.523 0-10 4.477-10 10v91.928h-154.722c-5.523 0-10 4.477-10 10s4.477 10.001 10 10.001zm356.422-168.422h28.313v148.421h-28.313zm-90.85 33.247h28.313v115.174h-28.313zm-90.85 33.247h28.313v81.928h-28.313z"/></g></g></svg>