<?xml version="1.0" encoding="iso-8859-1"?>
<!-- Generator: Adobe Illustrator 19.0.0, SVG Export Plug-In . SVG Version: 6.00 Build 0)  -->
<svg version="1.1" id="Layer_1" xmlns="http://www.w3.org/2000/svg" xmlns:xlink="http://www.w3.org/1999/xlink" x="0px" y="0px"
	 viewBox="0 0 512 512" style="enable-background:new 0 0 512 512;" xml:space="preserve">
<path style="fill:#E8A8C2;" d="M436.337,230.122L436.337,230.122c-57.645-35.008-110.753-76.989-158.125-124.993l-45.72-46.33
	c-20.64-20.916-56.066-3.878-52.611,25.304l0,0c8.211,69.372-32.128,135.35-97.617,159.661l0,0
	C37.321,260.448,7.5,303.328,7.5,351.267l0,0c0,61.421,49.791,111.213,111.212,111.213h274.575
	c61.421,0,111.212-49.792,111.212-111.213l0,0C504.5,301.751,478.659,255.825,436.337,230.122z"/>
<path style="opacity:0.05;enable-background:new    ;" d="M406.635,449.133H132.06c-61.421,0-111.213-49.792-111.213-111.213l0,0
	c0-27.827,10.063-53.937,27.284-74.221C22.855,285.079,7.5,316.87,7.5,351.267l0,0c0,61.421,49.791,111.212,111.212,111.212h274.575
	c34.108,0,64.625-15.36,85.025-39.534C458.955,439.281,433.947,449.133,406.635,449.133z"/>
<g style="opacity:0.1;">
	<path d="M117.185,422.698c-1.018,0-2.053-0.209-3.043-0.649c-28.465-12.658-46.37-38.978-47.896-70.405
		c-1.772-36.5,18.738-70.512,54.863-90.979c3.604-2.04,8.181-0.776,10.223,2.828c2.042,3.605,0.775,8.181-2.828,10.223
		c-31.094,17.616-48.767,46.477-47.275,77.201c1.245,25.65,15.828,47.118,39.008,57.427c3.785,1.683,5.489,6.115,3.806,9.9
		C122.8,421.037,120.058,422.698,117.185,422.698z"/>
	<path d="M408.094,422.698c-2.873,0-5.614-1.66-6.857-4.454c-1.684-3.785,0.021-8.218,3.805-9.9
		c21.342-9.491,34.643-28.574,36.492-52.355c2.436-31.325-14.857-62.937-45.131-82.499c-38.662-24.981-62.035-42.596-78.151-58.899
		c-2.912-2.945-2.885-7.694,0.061-10.607c2.945-2.91,7.694-2.886,10.606,0.062c15.105,15.28,38.429,32.813,75.624,56.846
		c34.905,22.555,54.81,59.44,51.945,96.261c-2.29,29.444-18.82,53.1-45.352,64.897C410.147,422.489,409.112,422.698,408.094,422.698
		z"/>
	<path d="M202.274,250.882c-2.369,0-4.699-1.119-6.157-3.21c-2.37-3.396-1.538-8.072,1.859-10.442
		c18.464-12.882,26.913-37.3,22.603-65.319c-0.63-4.094,2.178-7.924,6.272-8.554c4.104-0.628,7.924,2.18,8.553,6.272
		c5.201,33.803-5.582,63.673-28.845,79.903C205.252,250.444,203.756,250.882,202.274,250.882z"/>
</g>
<g>
	<path style="fill:#FFFFFF;" d="M177.053,372.632h-27.747c-4.142,0-7.5-3.357-7.5-7.5s3.358-7.5,7.5-7.5h27.747
		c4.142,0,7.5,3.357,7.5,7.5S181.195,372.632,177.053,372.632z"/>
	<path style="fill:#FFFFFF;" d="M377.669,372.632h-27.747c-4.143,0-7.5-3.357-7.5-7.5s3.357-7.5,7.5-7.5h27.747
		c4.143,0,7.5,3.357,7.5,7.5S381.811,372.632,377.669,372.632z"/>
</g>
<path d="M163.179,307.811c-4.142,0-7.5,3.358-7.5,7.5v17.635c0,4.143,3.358,7.5,7.5,7.5s7.5-3.357,7.5-7.5v-17.635
	C170.679,311.168,167.321,307.811,163.179,307.811z M295.886,325.446c-4.143,0-7.5,3.357-7.5,7.5c0,4.796-3.902,8.698-8.699,8.698
	s-8.699-3.902-8.699-8.698c0-4.143-3.357-7.5-7.5-7.5s-7.5,3.357-7.5,7.5c0,4.796-3.902,8.698-8.699,8.698
	c-4.797,0-8.699-3.902-8.699-8.698c0-4.143-3.358-7.5-7.5-7.5s-7.5,3.357-7.5,7.5c0,13.067,10.631,23.698,23.699,23.698
	c6.259,0,11.959-2.438,16.199-6.415c4.24,3.977,9.94,6.415,16.199,6.415c13.067,0,23.699-10.631,23.699-23.698
	C303.386,328.803,300.028,325.446,295.886,325.446z M363.795,307.811c-4.143,0-7.5,3.358-7.5,7.5v17.635c0,4.143,3.357,7.5,7.5,7.5
	s7.5-3.357,7.5-7.5v-17.635C371.295,311.168,367.938,307.811,363.795,307.811z M492.825,278.087
	c-12.544-22.295-30.73-41.098-52.595-54.375c-57.068-34.659-109.783-76.328-156.681-123.851L237.83,53.53
	c-11.689-11.844-28.934-14.84-43.93-7.624c-14.997,7.213-23.424,22.552-21.468,39.078c3.774,31.889-3.372,64.538-20.122,91.935
	c-16.75,27.396-42.554,48.639-72.657,59.813c-23.494,8.722-43.475,24.206-57.783,44.78C7.563,302.087,0,326.207,0,351.268
	C0,416.726,53.254,469.98,118.712,469.98h274.575C458.745,469.98,512,416.726,512,351.267
	C512,325.686,505.37,300.381,492.825,278.087z M393.287,454.98H118.712C61.525,454.98,15,408.454,15,351.267
	c0-44.58,28.08-84.957,69.873-100.472c33.244-12.341,61.738-35.798,80.235-66.052c18.497-30.253,26.388-66.308,22.22-101.522
	c-1.445-12.214,5.805-20.302,13.073-23.797c3.008-1.447,6.628-2.4,10.452-2.4c5.415,0,11.236,1.913,16.3,7.043l45.72,46.331
	c47.762,48.399,101.449,90.837,159.569,126.135c19.667,11.943,36.026,28.857,47.31,48.91C491.036,305.495,497,328.258,497,351.268
	C497,408.454,450.475,454.98,393.287,454.98z"/>
<g>
</g>
<g>
</g>
<g>
</g>
<g>
</g>
<g>
</g>
<g>
</g>
<g>
</g>
<g>
</g>
<g>
</g>
<g>
</g>
<g>
</g>
<g>
</g>
<g>
</g>
<g>
</g>
<g>
</g>
</svg>
